<?xml version="1.0" encoding="UTF-8"?>
<svg id="Layer_2" data-name="Layer 2" xmlns="http://www.w3.org/2000/svg" viewBox="0 0 26.2 43.38">
  <defs>
    <style>
      .cls-1 {
        fill: #045043;
        stroke-width: 0px;
      }
    </style>
  </defs>
  <g id="Layer_1-2" data-name="Layer 1">
    <path class="cls-1" d="M1.87.09v23.89c.22,0,.44,0,.66,0,.66-3.01,1.43-5.99,1.96-9.02,1.15-6.52,4.5-9.19,11.72-9.13,3.54.03,8.05,4.53,8.49,9.11.72,7.49,1.17,15.02,1.5,22.54.08,1.94-.73,3.92-1.12,5.87-.38,0-.77,0-1.15,0-.21-1.16-.83-2.42-.58-3.47,1.91-8.07.09-16-.98-23.9-.87-6.39-5.4-8.78-11.4-6.32-1.43.59-2.96,2.33-3.34,3.83-2.21,8.66-4.73,17.29-4.67,26.37,0,1.14-1.01,2.29-1.55,3.44-.46-1.12-1.32-2.24-1.33-3.36C-.03,27.83,0,15.69.04,3.55c0-1.18.41-2.37.63-3.55.4.03.8.06,1.2.09Z"/>
  </g>
</svg>