<?xml version="1.0" encoding="UTF-8"?>
<svg id="Layer_2" data-name="nabtang-cc" xmlns="http://www.w3.org/2000/svg" viewBox="0 0 286.04 67.45">
  <defs>
    <style>
      .cls-1 {
        fill: #065144;
      }

      .cls-1, .cls-2, .cls-3, .cls-4, .cls-5, .cls-6, .cls-7, .cls-8 {
        stroke-width: 0px;
      }

      .cls-2 {
        fill: #075145;
      }

      .cls-3 {
        fill: #024e42;
      }

      .cls-4 {
        fill: #075245;
      }

      .cls-5 {
        fill: #055044;
      }

      .cls-6 {
        fill: #085246;
      }

      .cls-7 {
        fill: #045043;
      }

      .cls-8 {
        fill: #0a5347;
      }
    </style>
  </defs>
  <g id="Layer_1-2" data-name="Layer 1">
    <g>
      <path class="cls-5" d="M73.94,43.79c0,4.21,0,8.43-.03,12.64,0,.11-.41.21-1.43.69-1.18-4.26-2.28-8.41-3.48-12.53-1.7-5.82.79-10.99,1.97-16.49,1.03-4.76.09-9.95-.02-14.95-.09-3.71-.28-7.42-.33-11.14,0-.42.65-.85,1.6-2.01.67,7.82,1.27,14.84,1.89,22.02,6.87-3.65,8.6-2.93,12.35,4.06,1.33,2.47,3.43,4.51,5.02,6.85,6.05,8.95,2.8,15.34-4.23,21.3-4.81,4.08-11.7-2.49-12.22-7.56-.1-.95-.01-1.92-.01-2.89-.36,0-.72,0-1.08.01ZM74.43,33.44c.86-.68,1.35-1.26,1.97-1.52.85-.37,1.81-.51,2.72-.74-.31.97-.5,2-.95,2.9-.4.8-1.62,1.5-1.56,2.17.34,4.04.5,8.18,1.59,12.04,1.14,4.03,5.74,5.85,8.01,3.47,6.23-6.53,8.16-9.64,3.08-17.42-2.07-3.18-4.1-6.39-6.11-9.61-1.67-2.69-3.64-3.09-6.21-1.19-3.36,2.49-2.81,5.98-2.54,9.92Z"/>
      <path class="cls-1" d="M195.67,59.77c1.72,3.78,4.32,6.07,8.64,5.28,7.59-1.38,12.44-7.16,12.44-14.86,0-1.37,0-2.74,0-4.94-1.77,4.05-3.11,7.41-7.64,7.91-6.3.7-10.04-5.8-11.15-11.24-1.3-6.33-.56-12.48.81-18.66.77-3.48,4.04-6.16,7.69-6.18.75,0,1.5.01,2.25,0,6.59-.11,6.37.56,7.31,6.92.54,3.64,1.25,7.27,1.56,10.93.6,7.13,1.02,14.28,1.38,21.42.05,1.02-.37,2.39-1.08,3.06-5.01,4.8-10.47,8.8-17.98,7.9-4.16-.49-6.49-4.35-4.23-7.56ZM211.74,19.34c-1.18,0-2.28,0-3.38,0-5.04-.01-6.58,1.31-7.36,6.21-.23,1.45-.56,2.89-.9,4.32-1.47,6.07-.35,11.89,2.68,17.08,1.09,1.86,4.29,3.76,6.2,3.47,1.82-.27,4.18-3.18,4.61-5.28,1.79-8.6,1.61-17.22-1.86-25.81Z"/>
      <path class="cls-7" d="M1.87,12.83v23.89c.22,0,.44,0,.66,0,.66-3.01,1.43-5.99,1.96-9.02,1.15-6.52,4.5-9.19,11.72-9.13,3.54.03,8.05,4.53,8.49,9.11.72,7.49,1.17,15.02,1.5,22.54.08,1.94-.73,3.92-1.12,5.87-.38,0-.77,0-1.15,0-.21-1.16-.83-2.42-.58-3.47,1.91-8.07.09-16-.98-23.9-.87-6.39-5.4-8.78-11.4-6.32-1.43.59-2.96,2.33-3.34,3.83-2.21,8.66-4.73,17.29-4.67,26.37,0,1.14-1.01,2.29-1.55,3.44-.46-1.12-1.32-2.24-1.33-3.36C-.03,40.57,0,28.43.04,16.29c0-1.18.41-2.37.63-3.55.4.03.8.06,1.2.09Z"/>
      <path class="cls-5" d="M65.17,52.38q-2.95.91-10.9-10.98c-.26,1.39-.4,2.83-.82,4.18-.76,2.47.53,6.18-3.6,6.73-6.99.94-9.02-.28-11.95-5.48-2.95-5.25-2.01-10.62-.87-15.87.75-3.47,2.46-6.82,4.19-9.97,1.84-3.35,5.36-4.58,8.42-2.62,1.92,1.23,3.62,3.68,4.24,5.91,1.67,5.98,2.14,12.33,4.19,18.15,1.27,3.61,4.56,6.51,7.1,9.94ZM49.94,49.95c3.01-8.85,1.56-17.86,1.62-26.72,0-1.03-2.68-2.44-4.34-2.98-.92-.3-2.63.54-3.44,1.39-4.76,5.03-5.26,11.6-5.38,17.92-.14,7.23,4.11,10.74,11.54,10.38Z"/>
      <path class="cls-2" d="M157.13,52.32c-3.67.82-4.97-.55-8.25-8.01-.35.79-.76,1.49-.96,2.24-1.74,6.37-2.73,7.09-9.22,6.55-4.18-.34-8.75-4.47-8.87-8.67-.21-7.54.04-15.05,5.39-21.28,2.17-2.53,8.2-4.53,10.7-2.79,1.26.88,2.02,2.78,2.53,4.38.75,2.32,1.54,4.78,1.48,7.17-.18,7.61,1.43,14.48,7.2,20.42ZM146.13,23.31c-4.6-2.08-6.7-1.39-9.68,2.52-3.93,5.13-4.41,11.13-4.24,17.08.07,2.24,1.94,4.84,3.72,6.51,2.72,2.55,8.31,1.88,8.96-.86,1.3-5.51,4.32-10.8,2.26-16.88-.84-2.48-.68-5.31-1.02-8.36Z"/>
      <path class="cls-7" d="M162.46,53.12c-.39-1.71-1.17-3.43-1.1-5.12.35-8.53.96-17.05,1.37-25.58.09-1.89-.29-3.81-.46-5.72.34-.07.68-.14,1.02-.2.34.56.72,1.11,1.01,1.69.34.66.6,1.36,1.01,2.3,2.01-4.2,6.11-3.32,8.64-2.31,2.72,1.08,5.37,4.09,6.54,6.88,1.91,4.57,2.65,9.65,3.78,14.54.28,1.19.29,2.48.22,3.71-.19,3.1-.47,6.19-.77,9.28-.04.42-.39.82-.72,1.48-3.15-2.38-2.18-5.44-2.04-8.25.13-2.73,1.04-5.62.41-8.15-1.26-5.07-3.19-10-5.12-14.87-1.11-2.8-3.93-3.2-6.34-2.52-1.18.33-2.36,2.29-2.7,3.72-.96,4.03-1.73,8.15-2.13,12.27-.51,5.17-.58,10.39-.88,15.59-.02.42-.39.81-.6,1.22-.38.02-.77.04-1.15.06Z"/>
      <path class="cls-3" d="M111.9,24.31c-4.73-.56-8.87-1.05-13.01-1.57-.16-.02-.27-.38-.86-1.24h14.35c-.73-5.6-1.43-10.8-2.06-16-.1-.8.15-1.64.24-2.47.71.5,1.95.91,2.05,1.51.62,3.5,1.03,7.03,1.38,10.57.17,1.72.03,3.48.03,5.42,2.81.27,5.52.53,8.23.79-.03.5-.07,1-.1,1.5-2.61.14-5.22.29-7.98.44-.06.58-.13,1.05-.15,1.53-.26,9.95-.47,19.9-.82,29.84-.04,1.04-.88,2.05-1.34,3.07-.39-.16-.77-.31-1.16-.47.4-10.97.79-21.94,1.19-32.92Z"/>
      <path class="cls-6" d="M258.34,46.24c2.01,3.75.02,8.46-3.84,8.96-2.62.34-5.58.22-8.02-.68-6.25-2.32-7.54-4.44-7.19-10.94.27-5.03.46-10.15,1.61-15.01.78-3.33,2.8-6.55,4.91-9.32,2.25-2.95,11.25-1.71,13.85,1.87-.97.11-1.83.48-2.44.24-8.94-3.61-11.03.09-14.1,7.76-.88,2.19-.6,4.85-.86,7.29-.24,2.32-.44,4.65-.74,6.96-.48,3.78.92,6.5,4.36,8.21,3.09,1.54,6.32,2.87,9.24.13,1.43-1.34,2.09-3.49,3.21-5.47Z"/>
      <path class="cls-4" d="M284.17,20.71c-8.38-4.06-13.88,2-14.84,9.57-.53,4.16-.3,8.42-.86,12.58-1.02,7.5,6.7,10.72,12.59,9.33.98-.23,1.81-1.55,2.48-2.53.66-.96,1.03-2.12,1.6-3.35,2.1,2.91.31,7.87-2.93,8.18-5.45.51-11.14,1.03-14.7-4.68-.5-.8-1.23-1.73-1.19-2.56.39-7.03.52-14.11,1.54-21.05.97-6.6,7.77-10.61,14.25-8.96,1.17.3,2.07,1.65,3.1,2.51l-1.03.97Z"/>
      <path class="cls-8" d="M230.54,55.87c-.94-1.81-1.9-2.88-1.67-3.4.43-.96,1.48-1.81,2.48-2.26.28-.13,1.91,1.43,1.78,1.93-.26,1.06-1.27,1.94-2.59,3.73Z"/>
    </g>
  </g>
</svg>